<mxfile host="app.diagrams.net" modified="2021-03-16T09:21:44.585Z" agent="5.0 (Windows NT 6.3; Win64; x64) AppleWebKit/537.36 (KHTML, like Gecko) Chrome/89.0.4389.82 Safari/537.36" etag="4JVfh1q1_Aeow000sucf" version="14.4.8" type="github">
  <diagram id="F5hbdtVg4_Iovi3qO92n" name="Page-1">
    <mxGraphModel dx="2625" dy="1685" grid="1" gridSize="10" guides="1" tooltips="1" connect="1" arrows="1" fold="1" page="1" pageScale="1" pageWidth="1654" pageHeight="1169" background="#ffffff" math="0" shadow="0">
      <root>
        <mxCell id="0" />
        <mxCell id="1" parent="0" />
        <mxCell id="XusIFSWOtDL4XgLfl8Nd-25" value="" style="rounded=0;whiteSpace=wrap;html=1;fillColor=none;dashed=1;glass=0;shadow=0;sketch=0;perimeterSpacing=0;opacity=70;" vertex="1" parent="1">
          <mxGeometry x="-1280" y="-780" width="2060" height="470" as="geometry" />
        </mxCell>
        <mxCell id="XusIFSWOtDL4XgLfl8Nd-24" value="" style="rounded=0;whiteSpace=wrap;html=1;fillColor=none;dashed=1;glass=0;shadow=0;sketch=0;perimeterSpacing=0;opacity=70;" vertex="1" parent="1">
          <mxGeometry x="-1280" y="-1150" width="2060" height="370" as="geometry" />
        </mxCell>
        <mxCell id="YyqVSU1BJUX03SP6np1w-126" value="&lt;blockquote style=&quot;margin: 0 0 0 40px ; border: none ; padding: 0px&quot;&gt;&lt;b&gt;&lt;font style=&quot;font-size: 20px&quot;&gt;Models&lt;/font&gt;&lt;/b&gt;&lt;/blockquote&gt;" style="text;html=1;strokeColor=none;fillColor=none;align=left;verticalAlign=middle;whiteSpace=wrap;rounded=0;dashed=1;" parent="1" vertex="1">
          <mxGeometry x="-1300" y="-990" width="130" height="20" as="geometry" />
        </mxCell>
        <mxCell id="YyqVSU1BJUX03SP6np1w-131" value="&lt;blockquote style=&quot;margin: 0 0 0 40px ; border: none ; padding: 0px&quot;&gt;&lt;b&gt;&lt;font style=&quot;font-size: 20px&quot;&gt;Services&lt;/font&gt;&lt;/b&gt;&lt;/blockquote&gt;" style="text;html=1;strokeColor=none;fillColor=none;align=left;verticalAlign=middle;whiteSpace=wrap;rounded=0;dashed=1;" parent="1" vertex="1">
          <mxGeometry x="-1280" y="-540" width="150" height="20" as="geometry" />
        </mxCell>
        <mxCell id="OfdvmskGDhxGMdM6KS_6-17" value="1" style="edgeStyle=elbowEdgeStyle;rounded=0;orthogonalLoop=1;jettySize=auto;html=1;startArrow=none;startFill=0;startSize=20;sourcePerimeterSpacing=0;endArrow=open;endFill=0;endSize=12;strokeWidth=1;noLabel=1;fontColor=none;entryX=0.998;entryY=0.764;entryDx=0;entryDy=0;entryPerimeter=0;" parent="1" source="OfdvmskGDhxGMdM6KS_6-12" target="OfdvmskGDhxGMdM6KS_6-5" edge="1">
          <mxGeometry relative="1" as="geometry">
            <Array as="points">
              <mxPoint x="-700" y="-980" />
            </Array>
          </mxGeometry>
        </mxCell>
        <mxCell id="TvS6yxpVSgVdmb5_EOR--7" style="edgeStyle=elbowEdgeStyle;rounded=0;orthogonalLoop=1;jettySize=auto;html=1;endArrow=open;endFill=0;endSize=12;" parent="1" source="TvS6yxpVSgVdmb5_EOR--3" target="OfdvmskGDhxGMdM6KS_6-23" edge="1">
          <mxGeometry relative="1" as="geometry">
            <Array as="points">
              <mxPoint x="370" y="-1077" />
            </Array>
          </mxGeometry>
        </mxCell>
        <mxCell id="TvS6yxpVSgVdmb5_EOR--11" style="edgeStyle=orthogonalEdgeStyle;rounded=0;orthogonalLoop=1;jettySize=auto;html=1;endArrow=open;endFill=0;endSize=12;dashed=1;exitX=1;exitY=0.107;exitDx=0;exitDy=0;exitPerimeter=0;" parent="1" source="TvS6yxpVSgVdmb5_EOR--10" target="OfdvmskGDhxGMdM6KS_6-15" edge="1">
          <mxGeometry relative="1" as="geometry">
            <mxPoint x="-669" y="-930" as="targetPoint" />
            <Array as="points">
              <mxPoint x="-665" y="-690" />
            </Array>
          </mxGeometry>
        </mxCell>
        <mxCell id="TvS6yxpVSgVdmb5_EOR--42" style="edgeStyle=orthogonalEdgeStyle;rounded=0;orthogonalLoop=1;jettySize=auto;html=1;dashed=1;endArrow=block;endFill=0;endSize=12;entryX=0.869;entryY=1.031;entryDx=0;entryDy=0;entryPerimeter=0;exitX=0.363;exitY=-0.033;exitDx=0;exitDy=0;exitPerimeter=0;" parent="1" source="TvS6yxpVSgVdmb5_EOR--28" target="TvS6yxpVSgVdmb5_EOR--37" edge="1">
          <mxGeometry relative="1" as="geometry" />
        </mxCell>
        <mxCell id="TvS6yxpVSgVdmb5_EOR--28" value="Billing\Card" style="swimlane;fontStyle=1;align=center;verticalAlign=top;childLayout=stackLayout;horizontal=1;startSize=26;horizontalStack=0;resizeParent=1;resizeParentMax=0;resizeLast=0;collapsible=1;marginBottom=0;fontColor=none;" parent="1" vertex="1">
          <mxGeometry x="-710" y="-440" width="160" height="60" as="geometry">
            <mxRectangle x="-1130" y="-42" width="150" height="26" as="alternateBounds" />
          </mxGeometry>
        </mxCell>
        <mxCell id="TvS6yxpVSgVdmb5_EOR--29" value="" style="line;strokeWidth=1;fillColor=none;align=left;verticalAlign=middle;spacingTop=-1;spacingLeft=3;spacingRight=3;rotatable=0;labelPosition=right;points=[];portConstraint=eastwest;" parent="TvS6yxpVSgVdmb5_EOR--28" vertex="1">
          <mxGeometry y="26" width="160" height="8" as="geometry" />
        </mxCell>
        <mxCell id="TvS6yxpVSgVdmb5_EOR--30" value="+ pay(float)" style="text;strokeColor=none;fillColor=none;align=left;verticalAlign=top;spacingLeft=4;spacingRight=4;overflow=hidden;rotatable=0;points=[[0,0.5],[1,0.5]];portConstraint=eastwest;" parent="TvS6yxpVSgVdmb5_EOR--28" vertex="1">
          <mxGeometry y="34" width="160" height="26" as="geometry" />
        </mxCell>
        <mxCell id="TvS6yxpVSgVdmb5_EOR--41" style="edgeStyle=orthogonalEdgeStyle;rounded=0;orthogonalLoop=1;jettySize=auto;html=1;entryX=0.231;entryY=1.031;entryDx=0;entryDy=0;dashed=1;endArrow=block;endFill=0;endSize=12;entryPerimeter=0;" parent="1" source="TvS6yxpVSgVdmb5_EOR--32" target="TvS6yxpVSgVdmb5_EOR--37" edge="1">
          <mxGeometry relative="1" as="geometry">
            <Array as="points">
              <mxPoint x="-753" y="-450" />
              <mxPoint x="-753" y="-450" />
            </Array>
          </mxGeometry>
        </mxCell>
        <mxCell id="TvS6yxpVSgVdmb5_EOR--32" value="Billing\BankTransfer" style="swimlane;fontStyle=1;align=center;verticalAlign=top;childLayout=stackLayout;horizontal=1;startSize=26;horizontalStack=0;resizeParent=1;resizeParentMax=0;resizeLast=0;collapsible=1;marginBottom=0;fontColor=none;" parent="1" vertex="1">
          <mxGeometry x="-905" y="-440" width="160" height="60" as="geometry">
            <mxRectangle x="-1130" y="-42" width="150" height="26" as="alternateBounds" />
          </mxGeometry>
        </mxCell>
        <mxCell id="TvS6yxpVSgVdmb5_EOR--33" value="" style="line;strokeWidth=1;fillColor=none;align=left;verticalAlign=middle;spacingTop=-1;spacingLeft=3;spacingRight=3;rotatable=0;labelPosition=right;points=[];portConstraint=eastwest;" parent="TvS6yxpVSgVdmb5_EOR--32" vertex="1">
          <mxGeometry y="26" width="160" height="8" as="geometry" />
        </mxCell>
        <mxCell id="TvS6yxpVSgVdmb5_EOR--34" value="+ pay(float)" style="text;strokeColor=none;fillColor=none;align=left;verticalAlign=top;spacingLeft=4;spacingRight=4;overflow=hidden;rotatable=0;points=[[0,0.5],[1,0.5]];portConstraint=eastwest;" parent="TvS6yxpVSgVdmb5_EOR--32" vertex="1">
          <mxGeometry y="34" width="160" height="26" as="geometry" />
        </mxCell>
        <mxCell id="TvS6yxpVSgVdmb5_EOR--35" value="&quot;Interface&quot;&#xa;Billing\IBilling" style="swimlane;fontStyle=1;align=center;verticalAlign=top;childLayout=stackLayout;horizontal=1;startSize=40;horizontalStack=0;resizeParent=1;resizeParentMax=0;resizeLast=0;collapsible=1;marginBottom=0;fontColor=none;" parent="1" vertex="1">
          <mxGeometry x="-790" y="-570" width="160" height="80" as="geometry">
            <mxRectangle x="-1130" y="-42" width="150" height="26" as="alternateBounds" />
          </mxGeometry>
        </mxCell>
        <mxCell id="TvS6yxpVSgVdmb5_EOR--36" value="" style="line;strokeWidth=1;fillColor=none;align=left;verticalAlign=middle;spacingTop=-1;spacingLeft=3;spacingRight=3;rotatable=0;labelPosition=right;points=[];portConstraint=eastwest;" parent="TvS6yxpVSgVdmb5_EOR--35" vertex="1">
          <mxGeometry y="40" width="160" height="8" as="geometry" />
        </mxCell>
        <mxCell id="TvS6yxpVSgVdmb5_EOR--37" value="+ pay(float)" style="text;strokeColor=none;fillColor=none;align=left;verticalAlign=top;spacingLeft=4;spacingRight=4;overflow=hidden;rotatable=0;points=[[0,0.5],[1,0.5]];portConstraint=eastwest;" parent="TvS6yxpVSgVdmb5_EOR--35" vertex="1">
          <mxGeometry y="48" width="160" height="32" as="geometry" />
        </mxCell>
        <mxCell id="TvS6yxpVSgVdmb5_EOR--53" style="edgeStyle=orthogonalEdgeStyle;rounded=0;orthogonalLoop=1;jettySize=auto;html=1;entryX=0.755;entryY=0.982;entryDx=0;entryDy=0;entryPerimeter=0;dashed=1;startArrow=none;startFill=0;startSize=18;endArrow=open;endFill=0;endSize=12;exitX=0.147;exitY=0.012;exitDx=0;exitDy=0;exitPerimeter=0;" parent="1" source="TvS6yxpVSgVdmb5_EOR--48" target="OfdvmskGDhxGMdM6KS_6-15" edge="1">
          <mxGeometry relative="1" as="geometry">
            <mxPoint x="-520" y="-840" as="sourcePoint" />
            <Array as="points">
              <mxPoint x="-534" y="-728" />
            </Array>
          </mxGeometry>
        </mxCell>
        <mxCell id="TvS6yxpVSgVdmb5_EOR--105" style="edgeStyle=orthogonalEdgeStyle;rounded=0;orthogonalLoop=1;jettySize=auto;html=1;entryX=0.5;entryY=0;entryDx=0;entryDy=0;dashed=1;startArrow=none;startFill=0;startSize=18;endArrow=open;endFill=0;endSize=12;exitX=-0.006;exitY=0.571;exitDx=0;exitDy=0;exitPerimeter=0;" parent="1" source="TvS6yxpVSgVdmb5_EOR--51" target="TvS6yxpVSgVdmb5_EOR--35" edge="1">
          <mxGeometry relative="1" as="geometry" />
        </mxCell>
        <mxCell id="TvS6yxpVSgVdmb5_EOR--116" style="edgeStyle=orthogonalEdgeStyle;rounded=0;orthogonalLoop=1;jettySize=auto;html=1;dashed=1;startArrow=none;startFill=0;startSize=18;endArrow=open;endFill=0;endSize=12;" parent="1" edge="1">
          <mxGeometry relative="1" as="geometry">
            <mxPoint x="-390" y="-559" as="sourcePoint" />
            <Array as="points">
              <mxPoint x="-390" y="-406" />
            </Array>
            <mxPoint x="-350" y="-406" as="targetPoint" />
          </mxGeometry>
        </mxCell>
        <mxCell id="XusIFSWOtDL4XgLfl8Nd-16" style="edgeStyle=orthogonalEdgeStyle;rounded=0;orthogonalLoop=1;jettySize=auto;html=1;entryX=0.998;entryY=0.284;entryDx=0;entryDy=0;entryPerimeter=0;startArrow=none;startFill=0;startSize=6;endArrow=open;endFill=0;endSize=12;" edge="1" parent="1" source="TvS6yxpVSgVdmb5_EOR--48" target="OfdvmskGDhxGMdM6KS_6-3">
          <mxGeometry relative="1" as="geometry" />
        </mxCell>
        <mxCell id="XusIFSWOtDL4XgLfl8Nd-19" style="edgeStyle=orthogonalEdgeStyle;rounded=0;orthogonalLoop=1;jettySize=auto;html=1;entryX=0.821;entryY=-0.033;entryDx=0;entryDy=0;entryPerimeter=0;startArrow=none;startFill=0;startSize=6;endArrow=open;endFill=0;endSize=12;" edge="1" parent="1" source="TvS6yxpVSgVdmb5_EOR--48" target="TvS6yxpVSgVdmb5_EOR--28">
          <mxGeometry relative="1" as="geometry">
            <Array as="points">
              <mxPoint x="-579" y="-530" />
              <mxPoint x="-579" y="-530" />
            </Array>
          </mxGeometry>
        </mxCell>
        <mxCell id="XusIFSWOtDL4XgLfl8Nd-20" style="edgeStyle=orthogonalEdgeStyle;rounded=0;orthogonalLoop=1;jettySize=auto;html=1;entryX=0.275;entryY=-0.026;entryDx=0;entryDy=0;entryPerimeter=0;startArrow=none;startFill=0;startSize=6;endArrow=open;endFill=0;endSize=12;exitX=0.823;exitY=1.011;exitDx=0;exitDy=0;exitPerimeter=0;" edge="1" parent="1" source="TvS6yxpVSgVdmb5_EOR--51" target="TvS6yxpVSgVdmb5_EOR--65">
          <mxGeometry relative="1" as="geometry">
            <Array as="points">
              <mxPoint x="-295" y="-559" />
            </Array>
          </mxGeometry>
        </mxCell>
        <mxCell id="XusIFSWOtDL4XgLfl8Nd-21" style="edgeStyle=orthogonalEdgeStyle;rounded=0;orthogonalLoop=1;jettySize=auto;html=1;entryX=0.159;entryY=-0.008;entryDx=0;entryDy=0;entryPerimeter=0;startArrow=none;startFill=0;startSize=6;endArrow=open;endFill=0;endSize=12;exitX=1.002;exitY=0.02;exitDx=0;exitDy=0;exitPerimeter=0;" edge="1" parent="1" source="TvS6yxpVSgVdmb5_EOR--51">
          <mxGeometry relative="1" as="geometry">
            <mxPoint x="-233.67999999999984" y="-676.1679999999999" as="sourcePoint" />
            <mxPoint x="76.44000000000005" y="-644.48" as="targetPoint" />
            <Array as="points">
              <mxPoint x="-210" y="-670" />
              <mxPoint x="76" y="-670" />
            </Array>
          </mxGeometry>
        </mxCell>
        <mxCell id="TvS6yxpVSgVdmb5_EOR--48" value="Order\Basket" style="swimlane;fontStyle=1;align=center;verticalAlign=top;childLayout=stackLayout;horizontal=1;startSize=26;horizontalStack=0;resizeParent=1;resizeParentMax=0;resizeLast=0;collapsible=1;marginBottom=0;" parent="1" vertex="1">
          <mxGeometry x="-590" y="-730" width="360" height="170" as="geometry">
            <mxRectangle x="-1360" y="-40" width="120" height="26" as="alternateBounds" />
          </mxGeometry>
        </mxCell>
        <mxCell id="TvS6yxpVSgVdmb5_EOR--49" value="- $session: SessionInterface" style="text;strokeColor=none;fillColor=none;align=left;verticalAlign=top;spacingLeft=4;spacingRight=4;overflow=hidden;rotatable=0;points=[[0,0.5],[1,0.5]];portConstraint=eastwest;" parent="TvS6yxpVSgVdmb5_EOR--48" vertex="1">
          <mxGeometry y="26" width="360" height="24" as="geometry" />
        </mxCell>
        <mxCell id="TvS6yxpVSgVdmb5_EOR--50" value="" style="line;strokeWidth=1;fillColor=none;align=left;verticalAlign=middle;spacingTop=-1;spacingLeft=3;spacingRight=3;rotatable=0;labelPosition=right;points=[];portConstraint=eastwest;" parent="TvS6yxpVSgVdmb5_EOR--48" vertex="1">
          <mxGeometry y="50" width="360" height="8" as="geometry" />
        </mxCell>
        <mxCell id="TvS6yxpVSgVdmb5_EOR--51" value="+ addProduct(int)&#xa;+ isProductInBasket(int): bool&#xa;+ getProductsInfo(): Entity\Product[]&#xa;+ checkout()&#xa;+ checkoutProcess(IDiscount, IBilling, ISecurity, ICommunication)&#xa;# getProductRepository(): Repository\Product&#xa;- getProductIds(): array" style="text;strokeColor=none;fillColor=none;align=left;verticalAlign=top;spacingLeft=4;spacingRight=4;overflow=hidden;rotatable=0;points=[[0,0.5],[1,0.5]];portConstraint=eastwest;" parent="TvS6yxpVSgVdmb5_EOR--48" vertex="1">
          <mxGeometry y="58" width="360" height="112" as="geometry" />
        </mxCell>
        <mxCell id="TvS6yxpVSgVdmb5_EOR--60" style="edgeStyle=orthogonalEdgeStyle;rounded=0;orthogonalLoop=1;jettySize=auto;html=1;dashed=1;endArrow=block;endFill=0;endSize=12;exitX=0.5;exitY=0;exitDx=0;exitDy=0;entryX=0.807;entryY=1.016;entryDx=0;entryDy=0;entryPerimeter=0;" parent="1" source="TvS6yxpVSgVdmb5_EOR--61" target="TvS6yxpVSgVdmb5_EOR--70" edge="1">
          <mxGeometry relative="1" as="geometry">
            <Array as="points">
              <mxPoint x="-29" y="-521" />
            </Array>
          </mxGeometry>
        </mxCell>
        <mxCell id="TvS6yxpVSgVdmb5_EOR--61" value="Communication\Sms" style="swimlane;fontStyle=1;align=center;verticalAlign=top;childLayout=stackLayout;horizontal=1;startSize=26;horizontalStack=0;resizeParent=1;resizeParentMax=0;resizeLast=0;collapsible=1;marginBottom=0;fontColor=none;" parent="1" vertex="1">
          <mxGeometry x="-130" y="-520" width="200" height="60" as="geometry">
            <mxRectangle x="-1130" y="-42" width="150" height="26" as="alternateBounds" />
          </mxGeometry>
        </mxCell>
        <mxCell id="TvS6yxpVSgVdmb5_EOR--62" value="" style="line;strokeWidth=1;fillColor=none;align=left;verticalAlign=middle;spacingTop=-1;spacingLeft=3;spacingRight=3;rotatable=0;labelPosition=right;points=[];portConstraint=eastwest;" parent="TvS6yxpVSgVdmb5_EOR--61" vertex="1">
          <mxGeometry y="26" width="200" height="8" as="geometry" />
        </mxCell>
        <mxCell id="TvS6yxpVSgVdmb5_EOR--63" value="+ process(Entity\User, string, array)" style="text;strokeColor=none;fillColor=none;align=left;verticalAlign=top;spacingLeft=4;spacingRight=4;overflow=hidden;rotatable=0;points=[[0,0.5],[1,0.5]];portConstraint=eastwest;" parent="TvS6yxpVSgVdmb5_EOR--61" vertex="1">
          <mxGeometry y="34" width="200" height="26" as="geometry" />
        </mxCell>
        <mxCell id="TvS6yxpVSgVdmb5_EOR--98" style="edgeStyle=orthogonalEdgeStyle;rounded=0;orthogonalLoop=1;jettySize=auto;html=1;entryX=0.102;entryY=1.094;entryDx=0;entryDy=0;entryPerimeter=0;dashed=1;startArrow=none;startFill=0;startSize=18;endArrow=block;endFill=0;endSize=12;exitX=0.903;exitY=-0.007;exitDx=0;exitDy=0;exitPerimeter=0;" parent="1" source="TvS6yxpVSgVdmb5_EOR--65" target="TvS6yxpVSgVdmb5_EOR--70" edge="1">
          <mxGeometry relative="1" as="geometry">
            <Array as="points">
              <mxPoint x="-169" y="-519" />
            </Array>
          </mxGeometry>
        </mxCell>
        <mxCell id="TvS6yxpVSgVdmb5_EOR--65" value="Communication\Email" style="swimlane;fontStyle=1;align=center;verticalAlign=top;childLayout=stackLayout;horizontal=1;startSize=26;horizontalStack=0;resizeParent=1;resizeParentMax=0;resizeLast=0;collapsible=1;marginBottom=0;fontColor=none;" parent="1" vertex="1">
          <mxGeometry x="-350" y="-520" width="200" height="60" as="geometry">
            <mxRectangle x="-1130" y="-42" width="150" height="26" as="alternateBounds" />
          </mxGeometry>
        </mxCell>
        <mxCell id="TvS6yxpVSgVdmb5_EOR--66" value="" style="line;strokeWidth=1;fillColor=none;align=left;verticalAlign=middle;spacingTop=-1;spacingLeft=3;spacingRight=3;rotatable=0;labelPosition=right;points=[];portConstraint=eastwest;" parent="TvS6yxpVSgVdmb5_EOR--65" vertex="1">
          <mxGeometry y="26" width="200" height="8" as="geometry" />
        </mxCell>
        <mxCell id="TvS6yxpVSgVdmb5_EOR--67" value="+ process(Entity\User, string, array)" style="text;strokeColor=none;fillColor=none;align=left;verticalAlign=top;spacingLeft=4;spacingRight=4;overflow=hidden;rotatable=0;points=[[0,0.5],[1,0.5]];portConstraint=eastwest;" parent="TvS6yxpVSgVdmb5_EOR--65" vertex="1">
          <mxGeometry y="34" width="200" height="26" as="geometry" />
        </mxCell>
        <mxCell id="TvS6yxpVSgVdmb5_EOR--68" value="&quot;Interface&quot;&#xa;Communication\ICommunication" style="swimlane;fontStyle=1;align=center;verticalAlign=top;childLayout=stackLayout;horizontal=1;startSize=40;horizontalStack=0;resizeParent=1;resizeParentMax=0;resizeLast=0;collapsible=1;marginBottom=0;fontColor=none;" parent="1" vertex="1">
          <mxGeometry x="-190" y="-650" width="200" height="80" as="geometry">
            <mxRectangle x="-1130" y="-42" width="150" height="26" as="alternateBounds" />
          </mxGeometry>
        </mxCell>
        <mxCell id="TvS6yxpVSgVdmb5_EOR--69" value="" style="line;strokeWidth=1;fillColor=none;align=left;verticalAlign=middle;spacingTop=-1;spacingLeft=3;spacingRight=3;rotatable=0;labelPosition=right;points=[];portConstraint=eastwest;" parent="TvS6yxpVSgVdmb5_EOR--68" vertex="1">
          <mxGeometry y="40" width="200" height="8" as="geometry" />
        </mxCell>
        <mxCell id="TvS6yxpVSgVdmb5_EOR--70" value="+ process(Entity\User, string, array)" style="text;strokeColor=none;fillColor=none;align=left;verticalAlign=top;spacingLeft=4;spacingRight=4;overflow=hidden;rotatable=0;points=[[0,0.5],[1,0.5]];portConstraint=eastwest;" parent="TvS6yxpVSgVdmb5_EOR--68" vertex="1">
          <mxGeometry y="48" width="200" height="32" as="geometry" />
        </mxCell>
        <mxCell id="TvS6yxpVSgVdmb5_EOR--104" style="edgeStyle=elbowEdgeStyle;rounded=0;orthogonalLoop=1;jettySize=auto;html=1;entryX=0.994;entryY=0.813;entryDx=0;entryDy=0;entryPerimeter=0;dashed=1;startArrow=none;startFill=0;startSize=18;endArrow=block;endFill=0;endSize=12;exitX=0;exitY=0.5;exitDx=0;exitDy=0;" parent="1" source="TvS6yxpVSgVdmb5_EOR--88" target="TvS6yxpVSgVdmb5_EOR--84" edge="1">
          <mxGeometry relative="1" as="geometry">
            <Array as="points">
              <mxPoint x="250" y="-610" />
            </Array>
          </mxGeometry>
        </mxCell>
        <mxCell id="TvS6yxpVSgVdmb5_EOR--75" value="Diskount\Promocode" style="swimlane;fontStyle=1;align=center;verticalAlign=top;childLayout=stackLayout;horizontal=1;startSize=26;horizontalStack=0;resizeParent=1;resizeParentMax=0;resizeLast=0;collapsible=1;marginBottom=0;fontColor=none;" parent="1" vertex="1">
          <mxGeometry x="290" y="-610" width="160" height="86" as="geometry">
            <mxRectangle x="-1130" y="-42" width="150" height="26" as="alternateBounds" />
          </mxGeometry>
        </mxCell>
        <mxCell id="TvS6yxpVSgVdmb5_EOR--88" value="-$promoCode: string&#xa;" style="text;strokeColor=none;fillColor=none;align=left;verticalAlign=top;spacingLeft=4;spacingRight=4;overflow=hidden;rotatable=0;points=[[0,0.5],[1,0.5]];portConstraint=eastwest;" parent="TvS6yxpVSgVdmb5_EOR--75" vertex="1">
          <mxGeometry y="26" width="160" height="24" as="geometry" />
        </mxCell>
        <mxCell id="TvS6yxpVSgVdmb5_EOR--76" value="" style="line;strokeWidth=1;fillColor=none;align=left;verticalAlign=middle;spacingTop=-1;spacingLeft=3;spacingRight=3;rotatable=0;labelPosition=right;points=[];portConstraint=eastwest;" parent="TvS6yxpVSgVdmb5_EOR--75" vertex="1">
          <mxGeometry y="50" width="160" height="10" as="geometry" />
        </mxCell>
        <mxCell id="TvS6yxpVSgVdmb5_EOR--77" value="+ getDiscount(): float" style="text;strokeColor=none;fillColor=none;align=left;verticalAlign=top;spacingLeft=4;spacingRight=4;overflow=hidden;rotatable=0;points=[[0,0.5],[1,0.5]];portConstraint=eastwest;" parent="TvS6yxpVSgVdmb5_EOR--75" vertex="1">
          <mxGeometry y="60" width="160" height="26" as="geometry" />
        </mxCell>
        <mxCell id="TvS6yxpVSgVdmb5_EOR--100" style="edgeStyle=none;rounded=0;orthogonalLoop=1;jettySize=auto;html=1;entryX=0.494;entryY=0.969;entryDx=0;entryDy=0;entryPerimeter=0;dashed=1;startArrow=none;startFill=0;startSize=18;endArrow=block;endFill=0;endSize=12;" parent="1" source="TvS6yxpVSgVdmb5_EOR--79" target="TvS6yxpVSgVdmb5_EOR--84" edge="1">
          <mxGeometry relative="1" as="geometry" />
        </mxCell>
        <mxCell id="TvS6yxpVSgVdmb5_EOR--79" value="Diskount\NullObject" style="swimlane;fontStyle=1;align=center;verticalAlign=top;childLayout=stackLayout;horizontal=1;startSize=26;horizontalStack=0;resizeParent=1;resizeParentMax=0;resizeLast=0;collapsible=1;marginBottom=0;fontColor=none;" parent="1" vertex="1">
          <mxGeometry x="50" y="-644" width="160" height="60" as="geometry">
            <mxRectangle x="-1130" y="-42" width="150" height="26" as="alternateBounds" />
          </mxGeometry>
        </mxCell>
        <mxCell id="TvS6yxpVSgVdmb5_EOR--80" value="" style="line;strokeWidth=1;fillColor=none;align=left;verticalAlign=middle;spacingTop=-1;spacingLeft=3;spacingRight=3;rotatable=0;labelPosition=right;points=[];portConstraint=eastwest;" parent="TvS6yxpVSgVdmb5_EOR--79" vertex="1">
          <mxGeometry y="26" width="160" height="8" as="geometry" />
        </mxCell>
        <mxCell id="TvS6yxpVSgVdmb5_EOR--81" value="+ getDiscount(): float" style="text;strokeColor=none;fillColor=none;align=left;verticalAlign=top;spacingLeft=4;spacingRight=4;overflow=hidden;rotatable=0;points=[[0,0.5],[1,0.5]];portConstraint=eastwest;" parent="TvS6yxpVSgVdmb5_EOR--79" vertex="1">
          <mxGeometry y="34" width="160" height="26" as="geometry" />
        </mxCell>
        <mxCell id="TvS6yxpVSgVdmb5_EOR--82" value="&quot;Interface&quot;&#xa;Diskount\IDiskount" style="swimlane;fontStyle=1;align=center;verticalAlign=top;childLayout=stackLayout;horizontal=1;startSize=40;horizontalStack=0;resizeParent=1;resizeParentMax=0;resizeLast=0;collapsible=1;marginBottom=0;fontColor=none;" parent="1" vertex="1">
          <mxGeometry x="50" y="-760" width="160" height="80" as="geometry">
            <mxRectangle x="-1130" y="-42" width="150" height="26" as="alternateBounds" />
          </mxGeometry>
        </mxCell>
        <mxCell id="TvS6yxpVSgVdmb5_EOR--83" value="" style="line;strokeWidth=1;fillColor=none;align=left;verticalAlign=middle;spacingTop=-1;spacingLeft=3;spacingRight=3;rotatable=0;labelPosition=right;points=[];portConstraint=eastwest;" parent="TvS6yxpVSgVdmb5_EOR--82" vertex="1">
          <mxGeometry y="40" width="160" height="8" as="geometry" />
        </mxCell>
        <mxCell id="TvS6yxpVSgVdmb5_EOR--84" value="+ getDiscount(): float" style="text;strokeColor=none;fillColor=none;align=left;verticalAlign=top;spacingLeft=4;spacingRight=4;overflow=hidden;rotatable=0;points=[[0,0.5],[1,0.5]];portConstraint=eastwest;" parent="TvS6yxpVSgVdmb5_EOR--82" vertex="1">
          <mxGeometry y="48" width="160" height="32" as="geometry" />
        </mxCell>
        <mxCell id="TvS6yxpVSgVdmb5_EOR--103" style="edgeStyle=none;rounded=0;orthogonalLoop=1;jettySize=auto;html=1;dashed=1;startArrow=none;startFill=0;startSize=18;endArrow=block;endFill=0;endSize=12;entryX=1;entryY=0.375;entryDx=0;entryDy=0;entryPerimeter=0;" parent="1" source="TvS6yxpVSgVdmb5_EOR--89" target="TvS6yxpVSgVdmb5_EOR--83" edge="1">
          <mxGeometry relative="1" as="geometry">
            <mxPoint x="290" y="-621" as="targetPoint" />
          </mxGeometry>
        </mxCell>
        <mxCell id="TvS6yxpVSgVdmb5_EOR--106" style="edgeStyle=orthogonalEdgeStyle;rounded=0;orthogonalLoop=1;jettySize=auto;html=1;entryX=0;entryY=0.375;entryDx=0;entryDy=0;entryPerimeter=0;dashed=1;startArrow=none;startFill=0;startSize=18;endArrow=open;endFill=0;endSize=12;" parent="1" target="TvS6yxpVSgVdmb5_EOR--68" edge="1">
          <mxGeometry relative="1" as="geometry">
            <mxPoint x="-230" y="-620" as="sourcePoint" />
          </mxGeometry>
        </mxCell>
        <mxCell id="TvS6yxpVSgVdmb5_EOR--107" style="edgeStyle=orthogonalEdgeStyle;rounded=0;orthogonalLoop=1;jettySize=auto;html=1;entryX=0;entryY=0.5;entryDx=0;entryDy=0;dashed=1;startArrow=none;startFill=0;startSize=18;endArrow=open;endFill=0;endSize=12;exitX=0.999;exitY=0.057;exitDx=0;exitDy=0;exitPerimeter=0;" parent="1" source="TvS6yxpVSgVdmb5_EOR--48" target="TvS6yxpVSgVdmb5_EOR--82" edge="1">
          <mxGeometry relative="1" as="geometry" />
        </mxCell>
        <mxCell id="TvS6yxpVSgVdmb5_EOR--109" value="&quot;Interface&quot;&#xa;User\ISecurity" style="swimlane;fontStyle=1;align=center;verticalAlign=top;childLayout=stackLayout;horizontal=1;startSize=40;horizontalStack=0;resizeParent=1;resizeParentMax=0;resizeLast=0;collapsible=1;marginBottom=0;fontColor=none;" parent="1" vertex="1">
          <mxGeometry x="-350" y="-450" width="220" height="120" as="geometry">
            <mxRectangle x="-1130" y="-42" width="150" height="26" as="alternateBounds" />
          </mxGeometry>
        </mxCell>
        <mxCell id="TvS6yxpVSgVdmb5_EOR--110" value="" style="line;strokeWidth=1;fillColor=none;align=left;verticalAlign=middle;spacingTop=-1;spacingLeft=3;spacingRight=3;rotatable=0;labelPosition=right;points=[];portConstraint=eastwest;" parent="TvS6yxpVSgVdmb5_EOR--109" vertex="1">
          <mxGeometry y="40" width="220" height="8" as="geometry" />
        </mxCell>
        <mxCell id="TvS6yxpVSgVdmb5_EOR--111" value="+ getUser(): Entity\User&#xa;+ isLogged(): bool&#xa;+ authentication(string, string): bool&#xa;+ logout()" style="text;strokeColor=none;fillColor=none;align=left;verticalAlign=top;spacingLeft=4;spacingRight=4;overflow=hidden;rotatable=0;points=[[0,0.5],[1,0.5]];portConstraint=eastwest;" parent="TvS6yxpVSgVdmb5_EOR--109" vertex="1">
          <mxGeometry y="48" width="220" height="72" as="geometry" />
        </mxCell>
        <mxCell id="TvS6yxpVSgVdmb5_EOR--120" style="edgeStyle=none;rounded=0;orthogonalLoop=1;jettySize=auto;html=1;startArrow=none;startFill=0;startSize=18;endArrow=open;endFill=0;endSize=12;exitX=1.009;exitY=0.143;exitDx=0;exitDy=0;exitPerimeter=0;" parent="1" source="TvS6yxpVSgVdmb5_EOR--112" edge="1">
          <mxGeometry relative="1" as="geometry">
            <Array as="points">
              <mxPoint x="499" y="-470" />
            </Array>
            <mxPoint x="499" y="-810" as="targetPoint" />
          </mxGeometry>
        </mxCell>
        <mxCell id="TvS6yxpVSgVdmb5_EOR--121" style="edgeStyle=none;rounded=0;orthogonalLoop=1;jettySize=auto;html=1;entryX=0.973;entryY=0.985;entryDx=0;entryDy=0;entryPerimeter=0;startArrow=none;startFill=0;startSize=18;endArrow=open;endFill=0;endSize=12;exitX=1;exitY=-0.037;exitDx=0;exitDy=0;exitPerimeter=0;" parent="1" source="TvS6yxpVSgVdmb5_EOR--115" target="TvS6yxpVSgVdmb5_EOR--5" edge="1">
          <mxGeometry relative="1" as="geometry">
            <Array as="points">
              <mxPoint x="584" y="-433" />
            </Array>
          </mxGeometry>
        </mxCell>
        <mxCell id="TvS6yxpVSgVdmb5_EOR--112" value="User\Security" style="swimlane;fontStyle=1;align=center;verticalAlign=top;childLayout=stackLayout;horizontal=1;startSize=26;horizontalStack=0;resizeParent=1;resizeParentMax=0;resizeLast=0;collapsible=1;marginBottom=0;fontColor=none;" parent="1" vertex="1">
          <mxGeometry x="230" y="-490" width="230" height="140" as="geometry">
            <mxRectangle x="-1130" y="-42" width="150" height="26" as="alternateBounds" />
          </mxGeometry>
        </mxCell>
        <mxCell id="TvS6yxpVSgVdmb5_EOR--113" value="- $session: SessionInterface" style="text;strokeColor=none;fillColor=none;align=left;verticalAlign=top;spacingLeft=4;spacingRight=4;overflow=hidden;rotatable=0;points=[[0,0.5],[1,0.5]];portConstraint=eastwest;" parent="TvS6yxpVSgVdmb5_EOR--112" vertex="1">
          <mxGeometry y="26" width="230" height="24" as="geometry" />
        </mxCell>
        <mxCell id="TvS6yxpVSgVdmb5_EOR--114" value="" style="line;strokeWidth=1;fillColor=none;align=left;verticalAlign=middle;spacingTop=-1;spacingLeft=3;spacingRight=3;rotatable=0;labelPosition=right;points=[];portConstraint=eastwest;" parent="TvS6yxpVSgVdmb5_EOR--112" vertex="1">
          <mxGeometry y="50" width="230" height="10" as="geometry" />
        </mxCell>
        <mxCell id="TvS6yxpVSgVdmb5_EOR--115" value="+ getUser(): Entity\User&#xa;+ isLogged(): bool&#xa;+ authentication(string, string): bool&#xa;+ logout()&#xa;# getUserRepository(): Repository\User" style="text;strokeColor=none;fillColor=none;align=left;verticalAlign=top;spacingLeft=4;spacingRight=4;overflow=hidden;rotatable=0;points=[[0,0.5],[1,0.5]];portConstraint=eastwest;" parent="TvS6yxpVSgVdmb5_EOR--112" vertex="1">
          <mxGeometry y="60" width="230" height="80" as="geometry" />
        </mxCell>
        <mxCell id="TvS6yxpVSgVdmb5_EOR--117" style="edgeStyle=none;rounded=0;orthogonalLoop=1;jettySize=auto;html=1;dashed=1;startArrow=none;startFill=0;startSize=18;endArrow=block;endFill=0;endSize=12;exitX=-0.013;exitY=0.263;exitDx=0;exitDy=0;exitPerimeter=0;" parent="1" source="TvS6yxpVSgVdmb5_EOR--115" edge="1">
          <mxGeometry relative="1" as="geometry">
            <mxPoint x="300" y="-351" as="sourcePoint" />
            <mxPoint x="-129" y="-409" as="targetPoint" />
          </mxGeometry>
        </mxCell>
        <mxCell id="TvS6yxpVSgVdmb5_EOR--201" style="edgeStyle=orthogonalEdgeStyle;rounded=0;orthogonalLoop=1;jettySize=auto;html=1;entryX=0.624;entryY=-0.005;entryDx=0;entryDy=0;entryPerimeter=0;startArrow=none;startFill=0;endArrow=open;endFill=0;" parent="1" source="TvS6yxpVSgVdmb5_EOR--3" target="OfdvmskGDhxGMdM6KS_6-18" edge="1">
          <mxGeometry relative="1" as="geometry">
            <Array as="points">
              <mxPoint x="476" y="-1020" />
              <mxPoint x="476" y="-1020" />
            </Array>
          </mxGeometry>
        </mxCell>
        <mxCell id="TvS6yxpVSgVdmb5_EOR--3" value="Repository\User" style="swimlane;fontStyle=1;align=center;verticalAlign=top;childLayout=stackLayout;horizontal=1;startSize=26;horizontalStack=0;resizeParent=1;resizeParentMax=0;resizeLast=0;collapsible=1;marginBottom=0;fontColor=none;" parent="1" vertex="1">
          <mxGeometry x="370" y="-1130" width="220" height="100" as="geometry">
            <mxRectangle x="-1130" y="-42" width="150" height="26" as="alternateBounds" />
          </mxGeometry>
        </mxCell>
        <mxCell id="TvS6yxpVSgVdmb5_EOR--4" value="" style="line;strokeWidth=1;fillColor=none;align=left;verticalAlign=middle;spacingTop=-1;spacingLeft=3;spacingRight=3;rotatable=0;labelPosition=right;points=[];portConstraint=eastwest;" parent="TvS6yxpVSgVdmb5_EOR--3" vertex="1">
          <mxGeometry y="26" width="220" height="8" as="geometry" />
        </mxCell>
        <mxCell id="TvS6yxpVSgVdmb5_EOR--5" value="+ getById(int): Entity\User&#xa;+ getByLogin(string): Entity\User&#xa;- createUser(array): Entity\User&#xa;- getDataFromSource(array)&#xa;&#xa;" style="text;strokeColor=none;fillColor=none;align=left;verticalAlign=top;spacingLeft=4;spacingRight=4;overflow=hidden;rotatable=0;points=[[0,0.5],[1,0.5]];portConstraint=eastwest;" parent="TvS6yxpVSgVdmb5_EOR--3" vertex="1">
          <mxGeometry y="34" width="220" height="66" as="geometry" />
        </mxCell>
        <mxCell id="TvS6yxpVSgVdmb5_EOR--118" style="edgeStyle=none;rounded=0;orthogonalLoop=1;jettySize=auto;html=1;startArrow=none;startFill=0;startSize=18;endArrow=open;endFill=0;endSize=12;exitX=0.75;exitY=0;exitDx=0;exitDy=0;" parent="1" source="TvS6yxpVSgVdmb5_EOR--89" edge="1">
          <mxGeometry relative="1" as="geometry">
            <mxPoint x="411" y="-810" as="targetPoint" />
          </mxGeometry>
        </mxCell>
        <mxCell id="TvS6yxpVSgVdmb5_EOR--89" value="Diskount\VipDiscount" style="swimlane;fontStyle=1;align=center;verticalAlign=top;childLayout=stackLayout;horizontal=1;startSize=26;horizontalStack=0;resizeParent=1;resizeParentMax=0;resizeLast=0;collapsible=1;marginBottom=0;fontColor=none;" parent="1" vertex="1">
          <mxGeometry x="290" y="-759" width="160" height="86" as="geometry">
            <mxRectangle x="-1130" y="-42" width="150" height="26" as="alternateBounds" />
          </mxGeometry>
        </mxCell>
        <mxCell id="TvS6yxpVSgVdmb5_EOR--90" value="- $user: Entity\User" style="text;strokeColor=none;fillColor=none;align=left;verticalAlign=top;spacingLeft=4;spacingRight=4;overflow=hidden;rotatable=0;points=[[0,0.5],[1,0.5]];portConstraint=eastwest;" parent="TvS6yxpVSgVdmb5_EOR--89" vertex="1">
          <mxGeometry y="26" width="160" height="24" as="geometry" />
        </mxCell>
        <mxCell id="TvS6yxpVSgVdmb5_EOR--91" value="" style="line;strokeWidth=1;fillColor=none;align=left;verticalAlign=middle;spacingTop=-1;spacingLeft=3;spacingRight=3;rotatable=0;labelPosition=right;points=[];portConstraint=eastwest;" parent="TvS6yxpVSgVdmb5_EOR--89" vertex="1">
          <mxGeometry y="50" width="160" height="10" as="geometry" />
        </mxCell>
        <mxCell id="TvS6yxpVSgVdmb5_EOR--92" value="+ getDiscount(): float" style="text;strokeColor=none;fillColor=none;align=left;verticalAlign=top;spacingLeft=4;spacingRight=4;overflow=hidden;rotatable=0;points=[[0,0.5],[1,0.5]];portConstraint=eastwest;" parent="TvS6yxpVSgVdmb5_EOR--89" vertex="1">
          <mxGeometry y="60" width="160" height="26" as="geometry" />
        </mxCell>
        <mxCell id="TvS6yxpVSgVdmb5_EOR--119" style="edgeStyle=orthogonalEdgeStyle;rounded=0;orthogonalLoop=1;jettySize=auto;html=1;startArrow=none;startFill=0;startSize=18;endArrow=open;endFill=0;endSize=12;" parent="1" source="OfdvmskGDhxGMdM6KS_6-18" target="OfdvmskGDhxGMdM6KS_6-25" edge="1">
          <mxGeometry relative="1" as="geometry" />
        </mxCell>
        <mxCell id="OfdvmskGDhxGMdM6KS_6-18" value="Entity\User" style="swimlane;fontStyle=1;align=center;verticalAlign=top;childLayout=stackLayout;horizontal=1;startSize=26;horizontalStack=0;resizeParent=1;resizeParentMax=0;resizeLast=0;collapsible=1;marginBottom=0;" parent="1" vertex="1">
          <mxGeometry x="370" y="-1000" width="170" height="190" as="geometry">
            <mxRectangle x="-1360" y="-40" width="120" height="26" as="alternateBounds" />
          </mxGeometry>
        </mxCell>
        <mxCell id="OfdvmskGDhxGMdM6KS_6-19" value="- $id: int&#xa;- $name: string&#xa;- $login: string&#xa;- $passwordHash: string&#xa;- $role: Entity\Role" style="text;strokeColor=none;fillColor=none;align=left;verticalAlign=top;spacingLeft=4;spacingRight=4;overflow=hidden;rotatable=0;points=[[0,0.5],[1,0.5]];portConstraint=eastwest;" parent="OfdvmskGDhxGMdM6KS_6-18" vertex="1">
          <mxGeometry y="26" width="170" height="74" as="geometry" />
        </mxCell>
        <mxCell id="OfdvmskGDhxGMdM6KS_6-20" value="" style="line;strokeWidth=1;fillColor=none;align=left;verticalAlign=middle;spacingTop=-1;spacingLeft=3;spacingRight=3;rotatable=0;labelPosition=right;points=[];portConstraint=eastwest;" parent="OfdvmskGDhxGMdM6KS_6-18" vertex="1">
          <mxGeometry y="100" width="170" height="8" as="geometry" />
        </mxCell>
        <mxCell id="OfdvmskGDhxGMdM6KS_6-21" value="+ getId(): int&#xa;+ getName(): string&#xa;+ getLogin(): string&#xa;+ getPasswordHash(): string&#xa;+ getRole(): Entity\Role" style="text;strokeColor=none;fillColor=none;align=left;verticalAlign=top;spacingLeft=4;spacingRight=4;overflow=hidden;rotatable=0;points=[[0,0.5],[1,0.5]];portConstraint=eastwest;" parent="OfdvmskGDhxGMdM6KS_6-18" vertex="1">
          <mxGeometry y="108" width="170" height="82" as="geometry" />
        </mxCell>
        <mxCell id="OfdvmskGDhxGMdM6KS_6-22" value="Entity\Role" style="swimlane;fontStyle=1;align=center;verticalAlign=top;childLayout=stackLayout;horizontal=1;startSize=26;horizontalStack=0;resizeParent=1;resizeParentMax=0;resizeLast=0;collapsible=1;marginBottom=0;" parent="1" vertex="1">
          <mxGeometry x="90" y="-1130" width="170" height="140" as="geometry">
            <mxRectangle x="-1360" y="-40" width="120" height="26" as="alternateBounds" />
          </mxGeometry>
        </mxCell>
        <mxCell id="OfdvmskGDhxGMdM6KS_6-23" value="- $id: int&#xa;- $title: string&#xa;- $type: string&#xa;" style="text;strokeColor=none;fillColor=none;align=left;verticalAlign=top;spacingLeft=4;spacingRight=4;overflow=hidden;rotatable=0;points=[[0,0.5],[1,0.5]];portConstraint=eastwest;" parent="OfdvmskGDhxGMdM6KS_6-22" vertex="1">
          <mxGeometry y="26" width="170" height="54" as="geometry" />
        </mxCell>
        <mxCell id="OfdvmskGDhxGMdM6KS_6-24" value="" style="line;strokeWidth=1;fillColor=none;align=left;verticalAlign=middle;spacingTop=-1;spacingLeft=3;spacingRight=3;rotatable=0;labelPosition=right;points=[];portConstraint=eastwest;" parent="OfdvmskGDhxGMdM6KS_6-22" vertex="1">
          <mxGeometry y="80" width="170" height="8" as="geometry" />
        </mxCell>
        <mxCell id="OfdvmskGDhxGMdM6KS_6-25" value="+ getId(): int&#xa;+ getTitle(): string&#xa;+ getType(): string&#xa;" style="text;strokeColor=none;fillColor=none;align=left;verticalAlign=top;spacingLeft=4;spacingRight=4;overflow=hidden;rotatable=0;points=[[0,0.5],[1,0.5]];portConstraint=eastwest;" parent="OfdvmskGDhxGMdM6KS_6-22" vertex="1">
          <mxGeometry y="88" width="170" height="52" as="geometry" />
        </mxCell>
        <mxCell id="TvS6yxpVSgVdmb5_EOR--125" style="edgeStyle=orthogonalEdgeStyle;rounded=0;orthogonalLoop=1;jettySize=auto;html=1;entryX=0.225;entryY=1.018;entryDx=0;entryDy=0;entryPerimeter=0;startArrow=none;startFill=0;startSize=18;endArrow=open;endFill=0;endSize=12;dashed=1;exitX=0.7;exitY=0.02;exitDx=0;exitDy=0;exitPerimeter=0;" parent="1" source="TvS6yxpVSgVdmb5_EOR--122" target="TvS6yxpVSgVdmb5_EOR--51" edge="1">
          <mxGeometry relative="1" as="geometry">
            <mxPoint x="-531" y="-260" as="sourcePoint" />
            <Array as="points">
              <mxPoint x="-509" y="-460" />
              <mxPoint x="-509" y="-460" />
            </Array>
          </mxGeometry>
        </mxCell>
        <mxCell id="TvS6yxpVSgVdmb5_EOR--126" style="edgeStyle=orthogonalEdgeStyle;rounded=0;orthogonalLoop=1;jettySize=auto;html=1;dashed=1;startArrow=none;startFill=0;startSize=18;endArrow=open;endFill=0;endSize=12;exitX=0.5;exitY=0;exitDx=0;exitDy=0;" parent="1" source="TvS6yxpVSgVdmb5_EOR--122" edge="1">
          <mxGeometry relative="1" as="geometry">
            <mxPoint x="-720" y="-210" as="sourcePoint" />
            <mxPoint x="-920" y="-639" as="targetPoint" />
            <Array as="points">
              <mxPoint x="-585" y="-290" />
              <mxPoint x="-920" y="-290" />
              <mxPoint x="-920" y="-639" />
            </Array>
          </mxGeometry>
        </mxCell>
        <mxCell id="TvS6yxpVSgVdmb5_EOR--151" style="edgeStyle=orthogonalEdgeStyle;rounded=0;orthogonalLoop=1;jettySize=auto;html=1;entryX=0.5;entryY=0;entryDx=0;entryDy=0;dashed=1;startArrow=none;startFill=0;endArrow=open;endFill=0;" parent="1" source="TvS6yxpVSgVdmb5_EOR--122" target="TvS6yxpVSgVdmb5_EOR--149" edge="1">
          <mxGeometry relative="1" as="geometry">
            <Array as="points">
              <mxPoint x="-520" y="-3" />
              <mxPoint x="-360" y="-3" />
            </Array>
          </mxGeometry>
        </mxCell>
        <mxCell id="TvS6yxpVSgVdmb5_EOR--163" style="edgeStyle=orthogonalEdgeStyle;rounded=0;orthogonalLoop=1;jettySize=auto;html=1;dashed=1;startArrow=none;startFill=0;endArrow=open;endFill=0;exitX=0.304;exitY=1.045;exitDx=0;exitDy=0;exitPerimeter=0;" parent="1" source="TvS6yxpVSgVdmb5_EOR--124" edge="1">
          <mxGeometry relative="1" as="geometry">
            <mxPoint x="-600" y="-74" as="targetPoint" />
          </mxGeometry>
        </mxCell>
        <mxCell id="TvS6yxpVSgVdmb5_EOR--173" style="edgeStyle=orthogonalEdgeStyle;rounded=0;orthogonalLoop=1;jettySize=auto;html=1;entryX=0.961;entryY=0.011;entryDx=0;entryDy=0;entryPerimeter=0;dashed=1;startArrow=none;startFill=0;endArrow=open;endFill=0;" parent="1" source="TvS6yxpVSgVdmb5_EOR--122" target="TvS6yxpVSgVdmb5_EOR--170" edge="1">
          <mxGeometry relative="1" as="geometry">
            <Array as="points">
              <mxPoint x="-537" y="-70" />
              <mxPoint x="-537" y="-70" />
            </Array>
          </mxGeometry>
        </mxCell>
        <mxCell id="TvS6yxpVSgVdmb5_EOR--122" value="ProductController" style="swimlane;fontStyle=1;align=center;verticalAlign=top;childLayout=stackLayout;horizontal=1;startSize=26;horizontalStack=0;resizeParent=1;resizeParentMax=0;resizeLast=0;collapsible=1;marginBottom=0;fontColor=none;" parent="1" vertex="1">
          <mxGeometry x="-670" y="-210" width="230" height="100" as="geometry">
            <mxRectangle x="-1130" y="-42" width="150" height="26" as="alternateBounds" />
          </mxGeometry>
        </mxCell>
        <mxCell id="TvS6yxpVSgVdmb5_EOR--123" value="" style="line;strokeWidth=1;fillColor=none;align=left;verticalAlign=middle;spacingTop=-1;spacingLeft=3;spacingRight=3;rotatable=0;labelPosition=right;points=[];portConstraint=eastwest;" parent="TvS6yxpVSgVdmb5_EOR--122" vertex="1">
          <mxGeometry y="26" width="230" height="8" as="geometry" />
        </mxCell>
        <mxCell id="TvS6yxpVSgVdmb5_EOR--124" value="- render(string , array)&#xa;- redirect(string): RedirectResponse&#xa;+ infoAction(Request, string): Response&#xa;+ listAction(Request): Response" style="text;strokeColor=none;fillColor=none;align=left;verticalAlign=top;spacingLeft=4;spacingRight=4;overflow=hidden;rotatable=0;points=[[0,0.5],[1,0.5]];portConstraint=eastwest;" parent="TvS6yxpVSgVdmb5_EOR--122" vertex="1">
          <mxGeometry y="34" width="230" height="66" as="geometry" />
        </mxCell>
        <mxCell id="TvS6yxpVSgVdmb5_EOR--130" style="edgeStyle=none;rounded=0;orthogonalLoop=1;jettySize=auto;html=1;entryX=0.447;entryY=1.036;entryDx=0;entryDy=0;entryPerimeter=0;dashed=1;startArrow=none;startFill=0;startSize=18;endArrow=open;endFill=0;endSize=12;exitX=-0.005;exitY=0.106;exitDx=0;exitDy=0;exitPerimeter=0;" parent="1" source="TvS6yxpVSgVdmb5_EOR--129" target="TvS6yxpVSgVdmb5_EOR--51" edge="1">
          <mxGeometry relative="1" as="geometry">
            <Array as="points">
              <mxPoint x="-429" y="-170" />
            </Array>
          </mxGeometry>
        </mxCell>
        <mxCell id="TvS6yxpVSgVdmb5_EOR--131" style="edgeStyle=none;rounded=0;orthogonalLoop=1;jettySize=auto;html=1;dashed=1;startArrow=none;startFill=0;startSize=18;endArrow=open;endFill=0;endSize=12;exitX=0.87;exitY=-0.02;exitDx=0;exitDy=0;exitPerimeter=0;entryX=0.096;entryY=1.05;entryDx=0;entryDy=0;entryPerimeter=0;" parent="1" source="TvS6yxpVSgVdmb5_EOR--127" target="TvS6yxpVSgVdmb5_EOR--115" edge="1">
          <mxGeometry relative="1" as="geometry">
            <mxPoint x="-170" y="-211" as="sourcePoint" />
            <mxPoint x="300" y="-290" as="targetPoint" />
            <Array as="points">
              <mxPoint x="50" y="-290" />
              <mxPoint x="252" y="-290" />
            </Array>
          </mxGeometry>
        </mxCell>
        <mxCell id="TvS6yxpVSgVdmb5_EOR--183" style="edgeStyle=orthogonalEdgeStyle;rounded=0;orthogonalLoop=1;jettySize=auto;html=1;entryX=0.694;entryY=-0.057;entryDx=0;entryDy=0;entryPerimeter=0;dashed=1;startArrow=none;startFill=0;endArrow=open;endFill=0;" parent="1" source="TvS6yxpVSgVdmb5_EOR--127" target="TvS6yxpVSgVdmb5_EOR--178" edge="1">
          <mxGeometry relative="1" as="geometry" />
        </mxCell>
        <mxCell id="TvS6yxpVSgVdmb5_EOR--184" style="edgeStyle=orthogonalEdgeStyle;rounded=0;orthogonalLoop=1;jettySize=auto;html=1;entryX=1;entryY=0.5;entryDx=0;entryDy=0;dashed=1;startArrow=none;startFill=0;endArrow=open;endFill=0;" parent="1" source="TvS6yxpVSgVdmb5_EOR--127" target="TvS6yxpVSgVdmb5_EOR--176" edge="1">
          <mxGeometry relative="1" as="geometry">
            <Array as="points">
              <mxPoint x="30" y="143" />
            </Array>
          </mxGeometry>
        </mxCell>
        <mxCell id="TvS6yxpVSgVdmb5_EOR--127" value="OrderController" style="swimlane;fontStyle=1;align=center;verticalAlign=top;childLayout=stackLayout;horizontal=1;startSize=26;horizontalStack=0;resizeParent=1;resizeParentMax=0;resizeLast=0;collapsible=1;marginBottom=0;fontColor=none;" parent="1" vertex="1">
          <mxGeometry x="-150" y="-210" width="230" height="100" as="geometry">
            <mxRectangle x="-1130" y="-42" width="150" height="26" as="alternateBounds" />
          </mxGeometry>
        </mxCell>
        <mxCell id="TvS6yxpVSgVdmb5_EOR--128" value="" style="line;strokeWidth=1;fillColor=none;align=left;verticalAlign=middle;spacingTop=-1;spacingLeft=3;spacingRight=3;rotatable=0;labelPosition=right;points=[];portConstraint=eastwest;" parent="TvS6yxpVSgVdmb5_EOR--127" vertex="1">
          <mxGeometry y="26" width="230" height="8" as="geometry" />
        </mxCell>
        <mxCell id="TvS6yxpVSgVdmb5_EOR--129" value="- render(string , array)&#xa;- redirect(string): RedirectResponse&#xa;+ infoAction(Request, string): Response&#xa;+ checkoutAction(Request): Response" style="text;strokeColor=none;fillColor=none;align=left;verticalAlign=top;spacingLeft=4;spacingRight=4;overflow=hidden;rotatable=0;points=[[0,0.5],[1,0.5]];portConstraint=eastwest;" parent="TvS6yxpVSgVdmb5_EOR--127" vertex="1">
          <mxGeometry y="34" width="230" height="66" as="geometry" />
        </mxCell>
        <mxCell id="TvS6yxpVSgVdmb5_EOR--135" style="edgeStyle=orthogonalEdgeStyle;rounded=0;orthogonalLoop=1;jettySize=auto;html=1;entryX=0.448;entryY=1.025;entryDx=0;entryDy=0;entryPerimeter=0;dashed=1;startArrow=none;startFill=0;startSize=18;endArrow=open;endFill=0;endSize=12;" parent="1" source="TvS6yxpVSgVdmb5_EOR--132" target="TvS6yxpVSgVdmb5_EOR--115" edge="1">
          <mxGeometry relative="1" as="geometry">
            <mxPoint x="230" y="-170" as="sourcePoint" />
            <Array as="points">
              <mxPoint x="333" y="-240" />
              <mxPoint x="333" y="-240" />
            </Array>
          </mxGeometry>
        </mxCell>
        <mxCell id="TvS6yxpVSgVdmb5_EOR--197" style="edgeStyle=orthogonalEdgeStyle;rounded=0;orthogonalLoop=1;jettySize=auto;html=1;entryX=0.75;entryY=0;entryDx=0;entryDy=0;dashed=1;startArrow=none;startFill=0;endArrow=open;endFill=0;" parent="1" source="TvS6yxpVSgVdmb5_EOR--132" target="TvS6yxpVSgVdmb5_EOR--190" edge="1">
          <mxGeometry relative="1" as="geometry">
            <Array as="points">
              <mxPoint x="195" y="-100" />
              <mxPoint x="195" y="-100" />
            </Array>
          </mxGeometry>
        </mxCell>
        <mxCell id="TvS6yxpVSgVdmb5_EOR--198" style="edgeStyle=orthogonalEdgeStyle;rounded=0;orthogonalLoop=1;jettySize=auto;html=1;entryX=0.25;entryY=0;entryDx=0;entryDy=0;dashed=1;startArrow=none;startFill=0;endArrow=open;endFill=0;" parent="1" source="TvS6yxpVSgVdmb5_EOR--132" target="TvS6yxpVSgVdmb5_EOR--193" edge="1">
          <mxGeometry relative="1" as="geometry" />
        </mxCell>
        <mxCell id="TvS6yxpVSgVdmb5_EOR--132" value="UserController" style="swimlane;fontStyle=1;align=center;verticalAlign=top;childLayout=stackLayout;horizontal=1;startSize=26;horizontalStack=0;resizeParent=1;resizeParentMax=0;resizeLast=0;collapsible=1;marginBottom=0;fontColor=none;" parent="1" vertex="1">
          <mxGeometry x="150" y="-210" width="300" height="100" as="geometry">
            <mxRectangle x="-1130" y="-42" width="150" height="26" as="alternateBounds" />
          </mxGeometry>
        </mxCell>
        <mxCell id="TvS6yxpVSgVdmb5_EOR--133" value="" style="line;strokeWidth=1;fillColor=none;align=left;verticalAlign=middle;spacingTop=-1;spacingLeft=3;spacingRight=3;rotatable=0;labelPosition=right;points=[];portConstraint=eastwest;" parent="TvS6yxpVSgVdmb5_EOR--132" vertex="1">
          <mxGeometry y="26" width="300" height="8" as="geometry" />
        </mxCell>
        <mxCell id="TvS6yxpVSgVdmb5_EOR--134" value="- render(string , array)&#xa;- redirect(string): RedirectResponse&#xa;+ authenticationAction(Request, string): Response&#xa;+ logoutAction(Request): Response" style="text;strokeColor=none;fillColor=none;align=left;verticalAlign=top;spacingLeft=4;spacingRight=4;overflow=hidden;rotatable=0;points=[[0,0.5],[1,0.5]];portConstraint=eastwest;" parent="TvS6yxpVSgVdmb5_EOR--132" vertex="1">
          <mxGeometry y="34" width="300" height="66" as="geometry" />
        </mxCell>
        <mxCell id="TvS6yxpVSgVdmb5_EOR--144" style="edgeStyle=orthogonalEdgeStyle;rounded=0;orthogonalLoop=1;jettySize=auto;html=1;dashed=1;startArrow=none;startFill=0;endArrow=open;endFill=0;" parent="1" source="TvS6yxpVSgVdmb5_EOR--136" target="TvS6yxpVSgVdmb5_EOR--139" edge="1">
          <mxGeometry relative="1" as="geometry" />
        </mxCell>
        <mxCell id="TvS6yxpVSgVdmb5_EOR--136" value="MainController" style="swimlane;fontStyle=1;align=center;verticalAlign=top;childLayout=stackLayout;horizontal=1;startSize=26;horizontalStack=0;resizeParent=1;resizeParentMax=0;resizeLast=0;collapsible=1;marginBottom=0;fontColor=none;" parent="1" vertex="1">
          <mxGeometry x="-950" y="-210" width="230" height="90" as="geometry">
            <mxRectangle x="-1130" y="-42" width="150" height="26" as="alternateBounds" />
          </mxGeometry>
        </mxCell>
        <mxCell id="TvS6yxpVSgVdmb5_EOR--137" value="" style="line;strokeWidth=1;fillColor=none;align=left;verticalAlign=middle;spacingTop=-1;spacingLeft=3;spacingRight=3;rotatable=0;labelPosition=right;points=[];portConstraint=eastwest;" parent="TvS6yxpVSgVdmb5_EOR--136" vertex="1">
          <mxGeometry y="26" width="230" height="8" as="geometry" />
        </mxCell>
        <mxCell id="TvS6yxpVSgVdmb5_EOR--138" value="- render(string , array)&#xa;- redirect(string): RedirectResponse&#xa;+ indexAction(): Response&#xa;" style="text;strokeColor=none;fillColor=none;align=left;verticalAlign=top;spacingLeft=4;spacingRight=4;overflow=hidden;rotatable=0;points=[[0,0.5],[1,0.5]];portConstraint=eastwest;" parent="TvS6yxpVSgVdmb5_EOR--136" vertex="1">
          <mxGeometry y="34" width="230" height="56" as="geometry" />
        </mxCell>
        <mxCell id="TvS6yxpVSgVdmb5_EOR--148" style="edgeStyle=orthogonalEdgeStyle;rounded=0;orthogonalLoop=1;jettySize=auto;html=1;entryX=0;entryY=0.5;entryDx=0;entryDy=0;dashed=1;startArrow=none;startFill=0;endArrow=open;endFill=0;" parent="1" source="TvS6yxpVSgVdmb5_EOR--139" target="TvS6yxpVSgVdmb5_EOR--146" edge="1">
          <mxGeometry relative="1" as="geometry">
            <Array as="points">
              <mxPoint x="-835" y="195" />
            </Array>
          </mxGeometry>
        </mxCell>
        <mxCell id="TvS6yxpVSgVdmb5_EOR--139" value="main/index" style="swimlane;fontStyle=1;align=center;verticalAlign=top;childLayout=stackLayout;horizontal=1;startSize=26;horizontalStack=0;resizeParent=1;resizeParentMax=0;resizeLast=0;collapsible=1;marginBottom=0;" parent="1" vertex="1">
          <mxGeometry x="-925" y="-80" width="180" height="34" as="geometry">
            <mxRectangle x="-1360" y="-40" width="120" height="26" as="alternateBounds" />
          </mxGeometry>
        </mxCell>
        <mxCell id="TvS6yxpVSgVdmb5_EOR--141" value="" style="line;strokeWidth=1;fillColor=none;align=left;verticalAlign=middle;spacingTop=-1;spacingLeft=3;spacingRight=3;rotatable=0;labelPosition=right;points=[];portConstraint=eastwest;" parent="TvS6yxpVSgVdmb5_EOR--139" vertex="1">
          <mxGeometry y="26" width="180" height="8" as="geometry" />
        </mxCell>
        <mxCell id="XusIFSWOtDL4XgLfl8Nd-13" style="edgeStyle=orthogonalEdgeStyle;rounded=0;orthogonalLoop=1;jettySize=auto;html=1;startArrow=none;startFill=0;startSize=6;endArrow=open;endFill=0;endSize=12;" edge="1" parent="1" source="TvS6yxpVSgVdmb5_EOR--8">
          <mxGeometry relative="1" as="geometry">
            <mxPoint x="-809" y="-930" as="targetPoint" />
            <Array as="points">
              <mxPoint x="-810" y="-825" />
              <mxPoint x="-809" y="-825" />
            </Array>
          </mxGeometry>
        </mxCell>
        <mxCell id="TvS6yxpVSgVdmb5_EOR--8" value="Product\Product" style="swimlane;fontStyle=1;align=center;verticalAlign=top;childLayout=stackLayout;horizontal=1;startSize=26;horizontalStack=0;resizeParent=1;resizeParentMax=0;resizeLast=0;collapsible=1;marginBottom=0;fontColor=none;" parent="1" vertex="1">
          <mxGeometry x="-940" y="-730" width="260" height="90" as="geometry">
            <mxRectangle x="-1130" y="-42" width="150" height="26" as="alternateBounds" />
          </mxGeometry>
        </mxCell>
        <mxCell id="TvS6yxpVSgVdmb5_EOR--9" value="" style="line;strokeWidth=1;fillColor=none;align=left;verticalAlign=middle;spacingTop=-1;spacingLeft=3;spacingRight=3;rotatable=0;labelPosition=right;points=[];portConstraint=eastwest;" parent="TvS6yxpVSgVdmb5_EOR--8" vertex="1">
          <mxGeometry y="26" width="260" height="8" as="geometry" />
        </mxCell>
        <mxCell id="TvS6yxpVSgVdmb5_EOR--10" value="+ getInfo(int): Entity\Product&#xa;+ getAll(string): Entity\Product[]&#xa;#getProductRepository(): Repository\Product" style="text;strokeColor=none;fillColor=none;align=left;verticalAlign=top;spacingLeft=4;spacingRight=4;overflow=hidden;rotatable=0;points=[[0,0.5],[1,0.5]];portConstraint=eastwest;" parent="TvS6yxpVSgVdmb5_EOR--8" vertex="1">
          <mxGeometry y="34" width="260" height="56" as="geometry" />
        </mxCell>
        <mxCell id="TvS6yxpVSgVdmb5_EOR--146" value="main_template" style="swimlane;fontStyle=1;align=center;verticalAlign=top;childLayout=stackLayout;horizontal=1;startSize=26;horizontalStack=0;resizeParent=1;resizeParentMax=0;resizeLast=0;collapsible=1;marginBottom=0;" parent="1" vertex="1">
          <mxGeometry x="-510" y="150" width="180" height="90" as="geometry">
            <mxRectangle x="-1360" y="-40" width="120" height="26" as="alternateBounds" />
          </mxGeometry>
        </mxCell>
        <mxCell id="TvS6yxpVSgVdmb5_EOR--147" value="" style="line;strokeWidth=1;fillColor=none;align=left;verticalAlign=middle;spacingTop=-1;spacingLeft=3;spacingRight=3;rotatable=0;labelPosition=right;points=[];portConstraint=eastwest;" parent="TvS6yxpVSgVdmb5_EOR--146" vertex="1">
          <mxGeometry y="26" width="180" height="64" as="geometry" />
        </mxCell>
        <mxCell id="TvS6yxpVSgVdmb5_EOR--169" style="edgeStyle=orthogonalEdgeStyle;rounded=0;orthogonalLoop=1;jettySize=auto;html=1;entryX=0.839;entryY=-0.033;entryDx=0;entryDy=0;entryPerimeter=0;dashed=1;startArrow=none;startFill=0;endArrow=open;endFill=0;" parent="1" source="TvS6yxpVSgVdmb5_EOR--149" target="TvS6yxpVSgVdmb5_EOR--146" edge="1">
          <mxGeometry relative="1" as="geometry" />
        </mxCell>
        <mxCell id="TvS6yxpVSgVdmb5_EOR--149" value="error404" style="swimlane;fontStyle=1;align=center;verticalAlign=top;childLayout=stackLayout;horizontal=1;startSize=26;horizontalStack=0;resizeParent=1;resizeParentMax=0;resizeLast=0;collapsible=1;marginBottom=0;" parent="1" vertex="1">
          <mxGeometry x="-450" y="64" width="180" height="34" as="geometry">
            <mxRectangle x="-1360" y="-40" width="120" height="26" as="alternateBounds" />
          </mxGeometry>
        </mxCell>
        <mxCell id="TvS6yxpVSgVdmb5_EOR--150" value="" style="line;strokeWidth=1;fillColor=none;align=left;verticalAlign=middle;spacingTop=-1;spacingLeft=3;spacingRight=3;rotatable=0;labelPosition=right;points=[];portConstraint=eastwest;" parent="TvS6yxpVSgVdmb5_EOR--149" vertex="1">
          <mxGeometry y="26" width="180" height="8" as="geometry" />
        </mxCell>
        <mxCell id="TvS6yxpVSgVdmb5_EOR--165" style="edgeStyle=orthogonalEdgeStyle;rounded=0;orthogonalLoop=1;jettySize=auto;html=1;dashed=1;startArrow=none;startFill=0;endArrow=open;endFill=0;entryX=0.006;entryY=0.764;entryDx=0;entryDy=0;entryPerimeter=0;" parent="1" source="TvS6yxpVSgVdmb5_EOR--157" target="OfdvmskGDhxGMdM6KS_6-5" edge="1">
          <mxGeometry relative="1" as="geometry">
            <mxPoint x="-970" y="-26" as="targetPoint" />
            <Array as="points">
              <mxPoint x="-1010" y="-26" />
              <mxPoint x="-1010" y="-947" />
            </Array>
          </mxGeometry>
        </mxCell>
        <mxCell id="TvS6yxpVSgVdmb5_EOR--157" value="product/info" style="swimlane;fontStyle=1;align=center;verticalAlign=top;childLayout=stackLayout;horizontal=1;startSize=26;horizontalStack=0;resizeParent=1;resizeParentMax=0;resizeLast=0;collapsible=1;marginBottom=0;" parent="1" vertex="1">
          <mxGeometry x="-710" y="-70" width="160" height="88" as="geometry">
            <mxRectangle x="-1360" y="-40" width="120" height="26" as="alternateBounds" />
          </mxGeometry>
        </mxCell>
        <mxCell id="TvS6yxpVSgVdmb5_EOR--158" value="$productInfo: Entity\Product&#xa;$isInBasket: bool&#xa;$path : Closure" style="text;strokeColor=none;fillColor=none;align=left;verticalAlign=top;spacingLeft=4;spacingRight=4;overflow=hidden;rotatable=0;points=[[0,0.5],[1,0.5]];portConstraint=eastwest;" parent="TvS6yxpVSgVdmb5_EOR--157" vertex="1">
          <mxGeometry y="26" width="160" height="54" as="geometry" />
        </mxCell>
        <mxCell id="TvS6yxpVSgVdmb5_EOR--159" value="" style="line;strokeWidth=1;fillColor=none;align=left;verticalAlign=middle;spacingTop=-1;spacingLeft=3;spacingRight=3;rotatable=0;labelPosition=right;points=[];portConstraint=eastwest;" parent="TvS6yxpVSgVdmb5_EOR--157" vertex="1">
          <mxGeometry y="80" width="160" height="8" as="geometry" />
        </mxCell>
        <mxCell id="TvS6yxpVSgVdmb5_EOR--167" style="edgeStyle=orthogonalEdgeStyle;rounded=0;orthogonalLoop=1;jettySize=auto;html=1;entryX=0;entryY=0.25;entryDx=0;entryDy=0;dashed=1;startArrow=none;startFill=0;endArrow=open;endFill=0;" parent="1" source="TvS6yxpVSgVdmb5_EOR--158" target="TvS6yxpVSgVdmb5_EOR--146" edge="1">
          <mxGeometry relative="1" as="geometry">
            <Array as="points">
              <mxPoint x="-750" y="-17" />
              <mxPoint x="-750" y="173" />
            </Array>
          </mxGeometry>
        </mxCell>
        <mxCell id="TvS6yxpVSgVdmb5_EOR--174" style="edgeStyle=orthogonalEdgeStyle;rounded=0;orthogonalLoop=1;jettySize=auto;html=1;entryX=0.094;entryY=-0.022;entryDx=0;entryDy=0;entryPerimeter=0;dashed=1;startArrow=none;startFill=0;endArrow=open;endFill=0;" parent="1" source="TvS6yxpVSgVdmb5_EOR--170" target="TvS6yxpVSgVdmb5_EOR--146" edge="1">
          <mxGeometry relative="1" as="geometry" />
        </mxCell>
        <mxCell id="TvS6yxpVSgVdmb5_EOR--170" value="product/list" style="swimlane;fontStyle=1;align=center;verticalAlign=top;childLayout=stackLayout;horizontal=1;startSize=26;horizontalStack=0;resizeParent=1;resizeParentMax=0;resizeLast=0;collapsible=1;marginBottom=0;" parent="1" vertex="1">
          <mxGeometry x="-710" y="40" width="180" height="68" as="geometry">
            <mxRectangle x="-1360" y="-40" width="120" height="26" as="alternateBounds" />
          </mxGeometry>
        </mxCell>
        <mxCell id="TvS6yxpVSgVdmb5_EOR--171" value="$productList: Entity\Product[]" style="text;strokeColor=none;fillColor=none;align=left;verticalAlign=top;spacingLeft=4;spacingRight=4;overflow=hidden;rotatable=0;points=[[0,0.5],[1,0.5]];portConstraint=eastwest;" parent="TvS6yxpVSgVdmb5_EOR--170" vertex="1">
          <mxGeometry y="26" width="180" height="34" as="geometry" />
        </mxCell>
        <mxCell id="TvS6yxpVSgVdmb5_EOR--172" value="" style="line;strokeWidth=1;fillColor=none;align=left;verticalAlign=middle;spacingTop=-1;spacingLeft=3;spacingRight=3;rotatable=0;labelPosition=right;points=[];portConstraint=eastwest;" parent="TvS6yxpVSgVdmb5_EOR--170" vertex="1">
          <mxGeometry y="60" width="180" height="8" as="geometry" />
        </mxCell>
        <mxCell id="TvS6yxpVSgVdmb5_EOR--186" style="edgeStyle=orthogonalEdgeStyle;rounded=0;orthogonalLoop=1;jettySize=auto;html=1;entryX=1;entryY=0.5;entryDx=0;entryDy=0;dashed=1;startArrow=none;startFill=0;endArrow=open;endFill=0;" parent="1" source="TvS6yxpVSgVdmb5_EOR--175" target="TvS6yxpVSgVdmb5_EOR--146" edge="1">
          <mxGeometry relative="1" as="geometry">
            <Array as="points">
              <mxPoint x="-200" y="134" />
              <mxPoint x="-200" y="195" />
            </Array>
          </mxGeometry>
        </mxCell>
        <mxCell id="TvS6yxpVSgVdmb5_EOR--189" style="edgeStyle=orthogonalEdgeStyle;rounded=0;orthogonalLoop=1;jettySize=auto;html=1;dashed=1;startArrow=none;startFill=0;endArrow=open;endFill=0;" parent="1" source="TvS6yxpVSgVdmb5_EOR--175" edge="1">
          <mxGeometry relative="1" as="geometry">
            <mxPoint x="-951" y="-1030" as="targetPoint" />
            <Array as="points">
              <mxPoint x="-70" y="290" />
              <mxPoint x="-1050" y="290" />
              <mxPoint x="-1050" y="-1030" />
            </Array>
          </mxGeometry>
        </mxCell>
        <mxCell id="TvS6yxpVSgVdmb5_EOR--175" value="order/info" style="swimlane;fontStyle=1;align=center;verticalAlign=top;childLayout=stackLayout;horizontal=1;startSize=26;horizontalStack=0;resizeParent=1;resizeParentMax=0;resizeLast=0;collapsible=1;marginBottom=0;" parent="1" vertex="1">
          <mxGeometry x="-175" y="90" width="170" height="88" as="geometry">
            <mxRectangle x="-1360" y="-40" width="120" height="26" as="alternateBounds" />
          </mxGeometry>
        </mxCell>
        <mxCell id="TvS6yxpVSgVdmb5_EOR--176" value="$productList: Entity\Product[]&#xa;$isInBasket: bool&#xa;$path : Closure" style="text;strokeColor=none;fillColor=none;align=left;verticalAlign=top;spacingLeft=4;spacingRight=4;overflow=hidden;rotatable=0;points=[[0,0.5],[1,0.5]];portConstraint=eastwest;" parent="TvS6yxpVSgVdmb5_EOR--175" vertex="1">
          <mxGeometry y="26" width="170" height="54" as="geometry" />
        </mxCell>
        <mxCell id="TvS6yxpVSgVdmb5_EOR--177" value="" style="line;strokeWidth=1;fillColor=none;align=left;verticalAlign=middle;spacingTop=-1;spacingLeft=3;spacingRight=3;rotatable=0;labelPosition=right;points=[];portConstraint=eastwest;" parent="TvS6yxpVSgVdmb5_EOR--175" vertex="1">
          <mxGeometry y="80" width="170" height="8" as="geometry" />
        </mxCell>
        <mxCell id="TvS6yxpVSgVdmb5_EOR--188" style="edgeStyle=orthogonalEdgeStyle;rounded=0;orthogonalLoop=1;jettySize=auto;html=1;dashed=1;startArrow=none;startFill=0;endArrow=open;endFill=0;" parent="1" source="TvS6yxpVSgVdmb5_EOR--178" edge="1">
          <mxGeometry relative="1" as="geometry">
            <mxPoint x="-950" y="-1080" as="targetPoint" />
            <Array as="points">
              <mxPoint x="80" y="10" />
              <mxPoint x="80" y="310" />
              <mxPoint x="-1070" y="310" />
              <mxPoint x="-1070" y="-1080" />
            </Array>
          </mxGeometry>
        </mxCell>
        <mxCell id="TvS6yxpVSgVdmb5_EOR--178" value="order/checkout" style="swimlane;fontStyle=1;align=center;verticalAlign=top;childLayout=stackLayout;horizontal=1;startSize=26;horizontalStack=0;resizeParent=1;resizeParentMax=0;resizeLast=0;collapsible=1;marginBottom=0;" parent="1" vertex="1">
          <mxGeometry x="-160" y="-60" width="170" height="88" as="geometry">
            <mxRectangle x="-1360" y="-40" width="120" height="26" as="alternateBounds" />
          </mxGeometry>
        </mxCell>
        <mxCell id="TvS6yxpVSgVdmb5_EOR--179" value="$productInfo: Entity\Product[]&#xa;$isInBasket: bool&#xa;$path : Closure" style="text;strokeColor=none;fillColor=none;align=left;verticalAlign=top;spacingLeft=4;spacingRight=4;overflow=hidden;rotatable=0;points=[[0,0.5],[1,0.5]];portConstraint=eastwest;" parent="TvS6yxpVSgVdmb5_EOR--178" vertex="1">
          <mxGeometry y="26" width="170" height="54" as="geometry" />
        </mxCell>
        <mxCell id="TvS6yxpVSgVdmb5_EOR--180" value="" style="line;strokeWidth=1;fillColor=none;align=left;verticalAlign=middle;spacingTop=-1;spacingLeft=3;spacingRight=3;rotatable=0;labelPosition=right;points=[];portConstraint=eastwest;" parent="TvS6yxpVSgVdmb5_EOR--178" vertex="1">
          <mxGeometry y="80" width="170" height="8" as="geometry" />
        </mxCell>
        <mxCell id="TvS6yxpVSgVdmb5_EOR--185" style="edgeStyle=orthogonalEdgeStyle;rounded=0;orthogonalLoop=1;jettySize=auto;html=1;entryX=1;entryY=0.25;entryDx=0;entryDy=0;dashed=1;startArrow=none;startFill=0;endArrow=open;endFill=0;" parent="1" source="TvS6yxpVSgVdmb5_EOR--179" target="TvS6yxpVSgVdmb5_EOR--146" edge="1">
          <mxGeometry relative="1" as="geometry">
            <Array as="points">
              <mxPoint x="-240" y="-7" />
              <mxPoint x="-240" y="173" />
            </Array>
          </mxGeometry>
        </mxCell>
        <mxCell id="TvS6yxpVSgVdmb5_EOR--187" style="edgeStyle=orthogonalEdgeStyle;rounded=0;orthogonalLoop=1;jettySize=auto;html=1;entryX=-0.012;entryY=0.981;entryDx=0;entryDy=0;entryPerimeter=0;dashed=1;startArrow=none;startFill=0;endArrow=open;endFill=0;" parent="1" source="TvS6yxpVSgVdmb5_EOR--171" target="OfdvmskGDhxGMdM6KS_6-3" edge="1">
          <mxGeometry relative="1" as="geometry">
            <Array as="points">
              <mxPoint x="-1030" y="93" />
              <mxPoint x="-1030" y="-1011" />
            </Array>
          </mxGeometry>
        </mxCell>
        <mxCell id="TvS6yxpVSgVdmb5_EOR--199" style="edgeStyle=orthogonalEdgeStyle;rounded=0;orthogonalLoop=1;jettySize=auto;html=1;entryX=0.989;entryY=0.531;entryDx=0;entryDy=0;entryPerimeter=0;dashed=1;startArrow=none;startFill=0;endArrow=open;endFill=0;" parent="1" source="TvS6yxpVSgVdmb5_EOR--190" target="TvS6yxpVSgVdmb5_EOR--147" edge="1">
          <mxGeometry relative="1" as="geometry" />
        </mxCell>
        <mxCell id="TvS6yxpVSgVdmb5_EOR--190" value="user/authentiaction" style="swimlane;fontStyle=1;align=center;verticalAlign=top;childLayout=stackLayout;horizontal=1;startSize=26;horizontalStack=0;resizeParent=1;resizeParentMax=0;resizeLast=0;collapsible=1;marginBottom=0;" parent="1" vertex="1">
          <mxGeometry x="60" y="-60" width="180" height="34" as="geometry">
            <mxRectangle x="-1360" y="-40" width="120" height="26" as="alternateBounds" />
          </mxGeometry>
        </mxCell>
        <mxCell id="TvS6yxpVSgVdmb5_EOR--192" value="" style="line;strokeWidth=1;fillColor=none;align=left;verticalAlign=middle;spacingTop=-1;spacingLeft=3;spacingRight=3;rotatable=0;labelPosition=right;points=[];portConstraint=eastwest;" parent="TvS6yxpVSgVdmb5_EOR--190" vertex="1">
          <mxGeometry y="26" width="180" height="8" as="geometry" />
        </mxCell>
        <mxCell id="TvS6yxpVSgVdmb5_EOR--200" style="edgeStyle=orthogonalEdgeStyle;rounded=0;orthogonalLoop=1;jettySize=auto;html=1;entryX=0.5;entryY=1;entryDx=0;entryDy=0;dashed=1;startArrow=none;startFill=0;endArrow=open;endFill=0;" parent="1" source="TvS6yxpVSgVdmb5_EOR--193" target="TvS6yxpVSgVdmb5_EOR--146" edge="1">
          <mxGeometry relative="1" as="geometry">
            <Array as="points">
              <mxPoint x="300" y="260" />
              <mxPoint x="-420" y="260" />
            </Array>
          </mxGeometry>
        </mxCell>
        <mxCell id="TvS6yxpVSgVdmb5_EOR--202" style="edgeStyle=orthogonalEdgeStyle;rounded=0;orthogonalLoop=1;jettySize=auto;html=1;entryX=1;entryY=0.5;entryDx=0;entryDy=0;startArrow=none;startFill=0;endArrow=open;endFill=0;dashed=1;" parent="1" source="TvS6yxpVSgVdmb5_EOR--193" target="OfdvmskGDhxGMdM6KS_6-19" edge="1">
          <mxGeometry relative="1" as="geometry">
            <Array as="points">
              <mxPoint x="610" y="-26" />
              <mxPoint x="610" y="-937" />
            </Array>
          </mxGeometry>
        </mxCell>
        <mxCell id="TvS6yxpVSgVdmb5_EOR--193" value="user/authentiaction_succes" style="swimlane;fontStyle=1;align=center;verticalAlign=top;childLayout=stackLayout;horizontal=1;startSize=26;horizontalStack=0;resizeParent=1;resizeParentMax=0;resizeLast=0;collapsible=1;marginBottom=0;" parent="1" vertex="1">
          <mxGeometry x="250" y="-60" width="200" height="68" as="geometry">
            <mxRectangle x="-1360" y="-40" width="120" height="26" as="alternateBounds" />
          </mxGeometry>
        </mxCell>
        <mxCell id="TvS6yxpVSgVdmb5_EOR--194" value="$user: Entity\User" style="text;strokeColor=none;fillColor=none;align=left;verticalAlign=top;spacingLeft=4;spacingRight=4;overflow=hidden;rotatable=0;points=[[0,0.5],[1,0.5]];portConstraint=eastwest;" parent="TvS6yxpVSgVdmb5_EOR--193" vertex="1">
          <mxGeometry y="26" width="200" height="34" as="geometry" />
        </mxCell>
        <mxCell id="TvS6yxpVSgVdmb5_EOR--195" value="" style="line;strokeWidth=1;fillColor=none;align=left;verticalAlign=middle;spacingTop=-1;spacingLeft=3;spacingRight=3;rotatable=0;labelPosition=right;points=[];portConstraint=eastwest;" parent="TvS6yxpVSgVdmb5_EOR--193" vertex="1">
          <mxGeometry y="60" width="200" height="8" as="geometry" />
        </mxCell>
        <mxCell id="OfdvmskGDhxGMdM6KS_6-12" value="Repository\Product" style="swimlane;fontStyle=1;align=center;verticalAlign=top;childLayout=stackLayout;horizontal=1;startSize=26;horizontalStack=0;resizeParent=1;resizeParentMax=0;resizeLast=0;collapsible=1;marginBottom=0;fontColor=none;" parent="1" vertex="1">
          <mxGeometry x="-700" y="-1005" width="220" height="90" as="geometry">
            <mxRectangle x="-1130" y="-42" width="150" height="26" as="alternateBounds" />
          </mxGeometry>
        </mxCell>
        <mxCell id="OfdvmskGDhxGMdM6KS_6-14" value="" style="line;strokeWidth=1;fillColor=none;align=left;verticalAlign=middle;spacingTop=-1;spacingLeft=3;spacingRight=3;rotatable=0;labelPosition=right;points=[];portConstraint=eastwest;" parent="OfdvmskGDhxGMdM6KS_6-12" vertex="1">
          <mxGeometry y="26" width="220" height="8" as="geometry" />
        </mxCell>
        <mxCell id="OfdvmskGDhxGMdM6KS_6-15" value="+ search(array): Entity\Product[*]&#xa;+ fetchAll(): Entity\Product[*]&#xa;+ getDataFromSource(array): array" style="text;strokeColor=none;fillColor=none;align=left;verticalAlign=top;spacingLeft=4;spacingRight=4;overflow=hidden;rotatable=0;points=[[0,0.5],[1,0.5]];portConstraint=eastwest;" parent="OfdvmskGDhxGMdM6KS_6-12" vertex="1">
          <mxGeometry y="34" width="220" height="56" as="geometry" />
        </mxCell>
        <mxCell id="TvS6yxpVSgVdmb5_EOR--2" value="&lt;font style=&quot;font-size: 18px&quot;&gt;1&lt;/font&gt;" style="text;html=1;strokeColor=none;fillColor=none;align=left;verticalAlign=middle;whiteSpace=wrap;rounded=0;" parent="1" vertex="1">
          <mxGeometry x="-720" y="-965" width="20" height="20" as="geometry" />
        </mxCell>
        <mxCell id="OfdvmskGDhxGMdM6KS_6-2" value="Entity\Product" style="swimlane;fontStyle=1;align=center;verticalAlign=top;childLayout=stackLayout;horizontal=1;startSize=26;horizontalStack=0;resizeParent=1;resizeParentMax=0;resizeLast=0;collapsible=1;marginBottom=0;" parent="1" vertex="1">
          <mxGeometry x="-950" y="-1090" width="160" height="160" as="geometry">
            <mxRectangle x="-1360" y="-40" width="120" height="26" as="alternateBounds" />
          </mxGeometry>
        </mxCell>
        <mxCell id="OfdvmskGDhxGMdM6KS_6-3" value="- $id: int&#xa;- $name: string&#xa;- $price: float&#xa;" style="text;strokeColor=none;fillColor=none;align=left;verticalAlign=top;spacingLeft=4;spacingRight=4;overflow=hidden;rotatable=0;points=[[0,0.5],[1,0.5]];portConstraint=eastwest;" parent="OfdvmskGDhxGMdM6KS_6-2" vertex="1">
          <mxGeometry y="26" width="160" height="54" as="geometry" />
        </mxCell>
        <mxCell id="OfdvmskGDhxGMdM6KS_6-4" value="" style="line;strokeWidth=1;fillColor=none;align=left;verticalAlign=middle;spacingTop=-1;spacingLeft=3;spacingRight=3;rotatable=0;labelPosition=right;points=[];portConstraint=eastwest;" parent="OfdvmskGDhxGMdM6KS_6-2" vertex="1">
          <mxGeometry y="80" width="160" height="8" as="geometry" />
        </mxCell>
        <mxCell id="OfdvmskGDhxGMdM6KS_6-5" value="+ getId(): int&#xa;+ getName(): string&#xa;+ getPrice(): float&#xa;+ toArray(): array" style="text;strokeColor=none;fillColor=none;align=left;verticalAlign=top;spacingLeft=4;spacingRight=4;overflow=hidden;rotatable=0;points=[[0,0.5],[1,0.5]];portConstraint=eastwest;" parent="OfdvmskGDhxGMdM6KS_6-2" vertex="1">
          <mxGeometry y="88" width="160" height="72" as="geometry" />
        </mxCell>
        <mxCell id="TvS6yxpVSgVdmb5_EOR--1" value="&lt;font style=&quot;font-size: 18px&quot;&gt;*&lt;/font&gt;" style="text;html=1;strokeColor=none;fillColor=none;align=right;verticalAlign=middle;whiteSpace=wrap;rounded=0;" parent="1" vertex="1">
          <mxGeometry x="-790" y="-965" width="20" height="20" as="geometry" />
        </mxCell>
        <mxCell id="XusIFSWOtDL4XgLfl8Nd-28" value="" style="rounded=0;whiteSpace=wrap;html=1;fillColor=none;dashed=1;glass=0;shadow=0;sketch=0;perimeterSpacing=0;opacity=70;" vertex="1" parent="1">
          <mxGeometry x="-1280" y="-310" width="2060" height="210" as="geometry" />
        </mxCell>
        <mxCell id="XusIFSWOtDL4XgLfl8Nd-29" value="" style="rounded=0;whiteSpace=wrap;html=1;fillColor=none;dashed=1;glass=0;shadow=0;sketch=0;perimeterSpacing=0;opacity=70;" vertex="1" parent="1">
          <mxGeometry x="-1280" y="-100" width="2060" height="440" as="geometry" />
        </mxCell>
        <mxCell id="XusIFSWOtDL4XgLfl8Nd-30" value="&lt;blockquote style=&quot;margin: 0 0 0 40px ; border: none ; padding: 0px&quot;&gt;&lt;b&gt;&lt;font style=&quot;font-size: 20px&quot;&gt;Controllers&lt;/font&gt;&lt;/b&gt;&lt;/blockquote&gt;" style="text;html=1;strokeColor=none;fillColor=none;align=left;verticalAlign=middle;whiteSpace=wrap;rounded=0;dashed=1;" vertex="1" parent="1">
          <mxGeometry x="-1280" y="-230" width="150" height="20" as="geometry" />
        </mxCell>
        <mxCell id="XusIFSWOtDL4XgLfl8Nd-31" value="&lt;blockquote style=&quot;margin: 0 0 0 40px ; border: none ; padding: 0px&quot;&gt;&lt;b&gt;&lt;font style=&quot;font-size: 20px&quot;&gt;Views&lt;/font&gt;&lt;/b&gt;&lt;/blockquote&gt;" style="text;html=1;strokeColor=none;fillColor=none;align=left;verticalAlign=middle;whiteSpace=wrap;rounded=0;dashed=1;" vertex="1" parent="1">
          <mxGeometry x="-1280" y="88" width="150" height="20" as="geometry" />
        </mxCell>
        <mxCell id="XusIFSWOtDL4XgLfl8Nd-32" value="&lt;font style=&quot;font-size: 18px&quot;&gt;1&lt;/font&gt;" style="text;html=1;strokeColor=none;fillColor=none;align=left;verticalAlign=middle;whiteSpace=wrap;rounded=0;" vertex="1" parent="1">
          <mxGeometry x="390" y="-810" width="20" height="20" as="geometry" />
        </mxCell>
        <mxCell id="XusIFSWOtDL4XgLfl8Nd-33" value="&lt;font style=&quot;font-size: 18px&quot;&gt;1&lt;/font&gt;" style="text;html=1;strokeColor=none;fillColor=none;align=left;verticalAlign=middle;whiteSpace=wrap;rounded=0;" vertex="1" parent="1">
          <mxGeometry x="390" y="-780" width="20" height="20" as="geometry" />
        </mxCell>
        <mxCell id="XusIFSWOtDL4XgLfl8Nd-34" value="&lt;font style=&quot;font-size: 18px&quot;&gt;1&lt;/font&gt;" style="text;html=1;strokeColor=none;fillColor=none;align=left;verticalAlign=middle;whiteSpace=wrap;rounded=0;" vertex="1" parent="1">
          <mxGeometry x="350" y="-930" width="20" height="20" as="geometry" />
        </mxCell>
        <mxCell id="XusIFSWOtDL4XgLfl8Nd-36" value="&lt;font style=&quot;font-size: 18px&quot;&gt;1&lt;/font&gt;" style="text;html=1;strokeColor=none;fillColor=none;align=left;verticalAlign=middle;whiteSpace=wrap;rounded=0;" vertex="1" parent="1">
          <mxGeometry x="260" y="-1040" width="20" height="20" as="geometry" />
        </mxCell>
        <mxCell id="XusIFSWOtDL4XgLfl8Nd-38" value="&lt;font style=&quot;font-size: 18px&quot;&gt;1&lt;/font&gt;" style="text;html=1;strokeColor=none;fillColor=none;align=left;verticalAlign=middle;whiteSpace=wrap;rounded=0;" vertex="1" parent="1">
          <mxGeometry x="540" y="-960" width="20" height="20" as="geometry" />
        </mxCell>
        <mxCell id="XusIFSWOtDL4XgLfl8Nd-39" value="&lt;font style=&quot;font-size: 18px&quot;&gt;1&lt;/font&gt;" style="text;html=1;strokeColor=none;fillColor=none;align=left;verticalAlign=middle;whiteSpace=wrap;rounded=0;" vertex="1" parent="1">
          <mxGeometry x="450" y="-46" width="20" height="20" as="geometry" />
        </mxCell>
        <mxCell id="XusIFSWOtDL4XgLfl8Nd-40" value="&lt;font style=&quot;font-size: 18px&quot;&gt;1&lt;/font&gt;" style="text;html=1;strokeColor=none;fillColor=none;align=left;verticalAlign=middle;whiteSpace=wrap;rounded=0;" vertex="1" parent="1">
          <mxGeometry x="10" y="-12" width="20" height="20" as="geometry" />
        </mxCell>
        <mxCell id="XusIFSWOtDL4XgLfl8Nd-41" value="&lt;font style=&quot;font-size: 18px&quot;&gt;1&lt;/font&gt;" style="text;html=1;strokeColor=none;fillColor=none;align=left;verticalAlign=middle;whiteSpace=wrap;rounded=0;" vertex="1" parent="1">
          <mxGeometry x="-90" y="178" width="20" height="20" as="geometry" />
        </mxCell>
        <mxCell id="XusIFSWOtDL4XgLfl8Nd-42" value="&lt;font style=&quot;font-size: 18px&quot;&gt;1&lt;/font&gt;" style="text;html=1;strokeColor=none;fillColor=none;align=left;verticalAlign=middle;whiteSpace=wrap;rounded=0;" vertex="1" parent="1">
          <mxGeometry x="-730" y="71" width="20" height="20" as="geometry" />
        </mxCell>
        <mxCell id="XusIFSWOtDL4XgLfl8Nd-43" value="&lt;font style=&quot;font-size: 18px&quot;&gt;1&lt;/font&gt;" style="text;html=1;strokeColor=none;fillColor=none;align=left;verticalAlign=middle;whiteSpace=wrap;rounded=0;" vertex="1" parent="1">
          <mxGeometry x="-730" y="-46" width="20" height="20" as="geometry" />
        </mxCell>
        <mxCell id="XusIFSWOtDL4XgLfl8Nd-44" value="&lt;font style=&quot;font-size: 18px&quot;&gt;1&lt;/font&gt;" style="text;html=1;strokeColor=none;fillColor=none;align=left;verticalAlign=middle;whiteSpace=wrap;rounded=0;" vertex="1" parent="1">
          <mxGeometry x="-970" y="-940" width="20" height="20" as="geometry" />
        </mxCell>
        <mxCell id="XusIFSWOtDL4XgLfl8Nd-45" value="&lt;font style=&quot;font-size: 18px&quot;&gt;*&lt;/font&gt;" style="text;html=1;strokeColor=none;fillColor=none;align=right;verticalAlign=middle;whiteSpace=wrap;rounded=0;" vertex="1" parent="1">
          <mxGeometry x="-980" y="-1005" width="20" height="20" as="geometry" />
        </mxCell>
        <mxCell id="XusIFSWOtDL4XgLfl8Nd-46" value="&lt;font style=&quot;font-size: 18px&quot;&gt;*&lt;/font&gt;" style="text;html=1;strokeColor=none;fillColor=none;align=right;verticalAlign=middle;whiteSpace=wrap;rounded=0;" vertex="1" parent="1">
          <mxGeometry x="-980" y="-1050" width="20" height="20" as="geometry" />
        </mxCell>
        <mxCell id="XusIFSWOtDL4XgLfl8Nd-47" value="&lt;font style=&quot;font-size: 18px&quot;&gt;*&lt;/font&gt;" style="text;html=1;strokeColor=none;fillColor=none;align=right;verticalAlign=middle;whiteSpace=wrap;rounded=0;" vertex="1" parent="1">
          <mxGeometry x="-980" y="-1100" width="20" height="20" as="geometry" />
        </mxCell>
      </root>
    </mxGraphModel>
  </diagram>
</mxfile>
